<?xml version="1.0" encoding="UTF-8" standalone="no"?>
<svg
   xmlns:dc="http://purl.org/dc/elements/1.1/"
   xmlns:cc="http://creativecommons.org/ns#"
   xmlns:rdf="http://www.w3.org/1999/02/22-rdf-syntax-ns#"
   xmlns:svg="http://www.w3.org/2000/svg"
   xmlns="http://www.w3.org/2000/svg"
   xmlns:sodipodi="http://sodipodi.sourceforge.net/DTD/sodipodi-0.dtd"
   xmlns:inkscape="http://www.inkscape.org/namespaces/inkscape"
   width="502.605mm"
   height="261.563mm"
   viewBox="0 0 502.605 261.563"
   version="1.1"
   preserveAspectRatio="xMidYMid meet"
   id="svg7"
   sodipodi:docname="box_robot_3.svg"
   inkscape:version="0.92.3 (2405546, 2018-03-11)">
  <metadata
     id="metadata13">
    <rdf:RDF>
      <cc:Work
         rdf:about="">
        <dc:format>image/svg+xml</dc:format>
        <dc:type
           rdf:resource="http://purl.org/dc/dcmitype/StillImage" />
      </cc:Work>
    </rdf:RDF>
  </metadata>
  <defs
     id="defs11" />
  <sodipodi:namedview
     pagecolor="#ffffff"
     bordercolor="#666666"
     borderopacity="1"
     objecttolerance="10"
     gridtolerance="10"
     guidetolerance="10"
     inkscape:pageopacity="0"
     inkscape:pageshadow="2"
     inkscape:window-width="1853"
     inkscape:window-height="1025"
     id="namedview9"
     showgrid="false"
     inkscape:zoom="1.0184431"
     inkscape:cx="139.89973"
     inkscape:cy="758.9899"
     inkscape:window-x="67"
     inkscape:window-y="27"
     inkscape:window-maximized="1"
     inkscape:current-layer="svgGroup" />
  <g
     id="svgGroup"
     stroke-linecap="round"
     fill-rule="evenodd"
     font-size="9pt"
     stroke="#000"
     stroke-width="0.25mm"
     fill="none"
     style="stroke:#000;stroke-width:0.25mm;fill:none">
    <path
       d="M 107.92762,16.475655 H 91.848619 v -3 h -10.875 v 3 h -10.875 v -3 h -10.875 v 3 h -10.875 -5.205 l -2.498,0.089 -2.485,0.268 -2.46,0.444 -2.421,0.618 -2.372,0.79 -2.309,0.956 -2.235,1.12 -2.149,1.275 -2.053,1.426 -1.946,1.569 -1.829,1.704 -1.702,1.83 -1.568,1.947 -1.424,2.053 -1.275,2.151 -1.118,2.235 -0.955,2.31 -0.7880004,2.372 -0.617,2.422 -0.443,2.46 -0.265,2.485 -0.088,2.476 v 11.094 h -3 v 10.875 h 3 v 10.875 h -3 v 10.875 h 3 v 10.874995 h -3 v 10.875 h 3 v 11.094 l 0.089,2.498 0.268,2.485 0.444,2.46 0.618,2.421 0.7900004,2.372 0.956,2.309 1.12,2.235 1.275,2.149 1.426,2.053 1.569,1.946 1.704,1.829 1.83,1.702 1.947,1.568 2.053,1.424 2.151,1.275 2.235,1.118 2.31,0.955 2.372,0.788 2.422,0.617 2.46,0.443 2.485,0.265 2.476,0.088 h 10.759 v 3 h 10.875 v -3 h 10.758 10.759 v 3 h 10.875 v -3 h 10.758001 l 2.498,-0.089 2.485,-0.268 2.46,-0.444 2.422,-0.618 2.371,-0.79 2.309,-0.956 2.235,-1.12 2.149,-1.276 2.053,-1.426 1.946,-1.568 1.829,-1.704 1.702,-1.83 1.568,-1.947 1.425,-2.053 1.274,-2.151 1.118,-2.235 0.955,-2.31 0.788,-2.372 0.617,-2.422 0.443,-2.46 0.265,-2.485 0.088,-2.476 v -11.094 h 3 v -10.875 h -3 V 95.194655 h 3 v -10.875 h -3 v -10.875 h 3 v -10.875 h -3 v -11.094 l -0.089,-2.498 -0.267,-2.485 -0.444,-2.46 -0.619,-2.421 -0.789,-2.372 -0.957,-2.309 -1.12,-2.235 -1.275,-2.149 -1.426,-2.053 -1.569,-1.946 -1.704,-1.829 -1.83,-1.702 -1.947,-1.568 -2.053,-1.424 -2.15,-1.275 -2.236,-1.118 -2.31,-0.955 -2.372,-0.788 -2.422,-0.617 -2.46,-0.443 -2.485,-0.265 z"
       id="TOP_outsideCutPath"
       style="vector-effect:non-scaling-stroke;stroke:#000000;stroke-width:0.79375;stroke-miterlimit:4;stroke-dasharray:none;stroke-opacity:1"
       inkscape:connector-curvature="0"
       inkscape:export-xdpi="96"
       inkscape:export-ydpi="96" />
  </g>
</svg>
