<?xml version="1.0" encoding="UTF-8" standalone="no"?>
<svg
   xmlns:dc="http://purl.org/dc/elements/1.1/"
   xmlns:cc="http://creativecommons.org/ns#"
   xmlns:rdf="http://www.w3.org/1999/02/22-rdf-syntax-ns#"
   xmlns:svg="http://www.w3.org/2000/svg"
   xmlns="http://www.w3.org/2000/svg"
   xmlns:sodipodi="http://sodipodi.sourceforge.net/DTD/sodipodi-0.dtd"
   xmlns:inkscape="http://www.inkscape.org/namespaces/inkscape"
   width="502.605mm"
   height="261.563mm"
   viewBox="0 0 502.605 261.563"
   version="1.1"
   preserveAspectRatio="xMidYMid meet"
   id="svg7"
   sodipodi:docname="box_robot.svg"
   inkscape:version="0.92.3 (2405546, 2018-03-11)">
  <metadata
     id="metadata13">
    <rdf:RDF>
      <cc:Work
         rdf:about="">
        <dc:format>image/svg+xml</dc:format>
        <dc:type
           rdf:resource="http://purl.org/dc/dcmitype/StillImage" />
      </cc:Work>
    </rdf:RDF>
  </metadata>
  <defs
     id="defs11" />
  <sodipodi:namedview
     pagecolor="#ffffff"
     bordercolor="#666666"
     borderopacity="1"
     objecttolerance="10"
     gridtolerance="10"
     guidetolerance="10"
     inkscape:pageopacity="0"
     inkscape:pageshadow="2"
     inkscape:window-width="1853"
     inkscape:window-height="1025"
     id="namedview9"
     showgrid="false"
     inkscape:zoom="0.50922154"
     inkscape:cx="773.58707"
     inkscape:cy="644.14897"
     inkscape:window-x="67"
     inkscape:window-y="27"
     inkscape:window-maximized="1"
     inkscape:current-layer="svgGroup" />
  <g
     id="svgGroup"
     stroke-linecap="round"
     fill-rule="evenodd"
     font-size="9pt"
     stroke="#000"
     stroke-width="0.25mm"
     fill="none"
     style="stroke:#000;stroke-width:0.25mm;fill:none">
    <path
       d="M 102.784 112 L 86.705 112 L 86.705 109 L 75.83 109 L 75.83 112 L 64.955 112 L 64.955 109 L 54.08 109 L 54.08 112 L 43.205 112 L 38 112 L 35.502 112.089 L 33.017 112.357 L 30.557 112.801 L 28.136 113.419 L 25.764 114.209 L 23.455 115.165 L 21.22 116.285 L 19.071 117.56 L 17.018 118.986 L 15.072 120.555 L 13.243 122.259 L 11.541 124.089 L 9.973 126.036 L 8.549 128.089 L 7.274 130.24 L 6.156 132.475 L 5.201 134.785 L 4.413 137.157 L 3.796 139.579 L 3.353 142.039 L 3.088 144.524 L 3 147 L 3 158.094 L 0 158.094 L 0 168.969 L 3 168.969 L 3 179.844 L 0 179.844 L 0 190.719 L 3 190.719 L 3 201.594 L 0 201.594 L 0 212.469 L 3 212.469 L 3 223.563 L 3.089 226.061 L 3.357 228.546 L 3.801 231.006 L 4.419 233.427 L 5.209 235.799 L 6.165 238.108 L 7.285 240.343 L 8.56 242.492 L 9.986 244.545 L 11.555 246.491 L 13.259 248.32 L 15.089 250.022 L 17.036 251.59 L 19.089 253.014 L 21.24 254.289 L 23.475 255.407 L 25.785 256.362 L 28.157 257.15 L 30.579 257.767 L 33.039 258.21 L 35.524 258.475 L 38 258.563 L 48.759 258.563 L 48.759 261.563 L 59.634 261.563 L 59.634 258.563 L 70.392 258.563 L 81.151 258.563 L 81.151 261.563 L 92.026 261.563 L 92.026 258.563 L 102.784 258.563 L 105.282 258.474 L 107.767 258.206 L 110.227 257.762 L 112.649 257.144 L 115.02 256.354 L 117.329 255.398 L 119.564 254.278 L 121.713 253.002 L 123.766 251.576 L 125.712 250.008 L 127.541 248.304 L 129.243 246.474 L 130.811 244.527 L 132.236 242.474 L 133.51 240.323 L 134.628 238.088 L 135.583 235.778 L 136.371 233.406 L 136.988 230.984 L 137.431 228.524 L 137.696 226.039 L 137.784 223.563 L 137.784 212.469 L 140.784 212.469 L 140.784 201.594 L 137.784 201.594 L 137.784 190.719 L 140.784 190.719 L 140.784 179.844 L 137.784 179.844 L 137.784 168.969 L 140.784 168.969 L 140.784 158.094 L 137.784 158.094 L 137.784 147 L 137.695 144.502 L 137.428 142.017 L 136.984 139.557 L 136.365 137.136 L 135.576 134.764 L 134.619 132.455 L 133.499 130.22 L 132.224 128.071 L 130.798 126.018 L 129.229 124.072 L 127.525 122.243 L 125.695 120.541 L 123.748 118.973 L 121.695 117.549 L 119.545 116.274 L 117.309 115.156 L 114.999 114.201 L 112.627 113.413 L 110.205 112.796 L 107.745 112.353 L 105.26 112.088 L 102.784 112 Z"
       id="TOP_outsideCutPath"
       stroke="#FF0000"
       stroke-width="0.1"
       style="stroke:#FF0000;stroke-width:0.22648333;stroke-miterlimit:4;stroke-dasharray:none"
       vector-effect="non-scaling-stroke" />
    <path
       d="M 246.568 112 L 230.489 112 L 230.489 109 L 219.614 109 L 219.614 112 L 208.739 112 L 208.739 109 L 197.864 109 L 197.864 112 L 186.989 112 L 181.784 112 L 179.286 112.089 L 176.801 112.357 L 174.341 112.801 L 171.92 113.419 L 169.548 114.209 L 167.239 115.165 L 165.004 116.285 L 162.855 117.56 L 160.802 118.986 L 158.856 120.555 L 157.027 122.259 L 155.325 124.089 L 153.757 126.036 L 152.333 128.089 L 151.058 130.24 L 149.94 132.475 L 148.985 134.785 L 148.197 137.157 L 147.58 139.579 L 147.137 142.039 L 146.872 144.524 L 146.784 147 L 146.784 158.094 L 143.784 158.094 L 143.784 168.969 L 146.784 168.969 L 146.784 179.844 L 143.784 179.844 L 143.784 190.719 L 146.784 190.719 L 146.784 201.594 L 143.784 201.594 L 143.784 212.469 L 146.784 212.469 L 146.784 223.563 L 146.873 226.061 L 147.141 228.546 L 147.585 231.006 L 148.203 233.427 L 148.993 235.799 L 149.949 238.108 L 151.069 240.343 L 152.345 242.492 L 153.771 244.545 L 155.339 246.491 L 157.043 248.32 L 158.873 250.022 L 160.82 251.59 L 162.873 253.014 L 165.024 254.289 L 167.259 255.407 L 169.569 256.362 L 171.941 257.15 L 174.363 257.767 L 176.823 258.21 L 179.308 258.475 L 181.784 258.563 L 192.543 258.563 L 192.543 261.563 L 203.418 261.563 L 203.418 258.563 L 214.176 258.563 L 224.935 258.563 L 224.935 261.563 L 235.81 261.563 L 235.81 258.563 L 246.568 258.563 L 249.066 258.474 L 251.551 258.206 L 254.011 257.762 L 256.433 257.144 L 258.804 256.354 L 261.113 255.398 L 263.348 254.278 L 265.497 253.002 L 267.55 251.576 L 269.496 250.008 L 271.325 248.304 L 273.027 246.474 L 274.595 244.527 L 276.02 242.474 L 277.294 240.323 L 278.412 238.088 L 279.367 235.778 L 280.155 233.406 L 280.772 230.984 L 281.215 228.524 L 281.48 226.039 L 281.568 223.563 L 281.568 212.469 L 284.568 212.469 L 284.568 201.594 L 281.568 201.594 L 281.568 190.719 L 284.568 190.719 L 284.568 179.844 L 281.568 179.844 L 281.568 168.969 L 284.568 168.969 L 284.568 158.094 L 281.568 158.094 L 281.568 147 L 281.479 144.502 L 281.212 142.017 L 280.768 139.557 L 280.149 137.136 L 279.36 134.764 L 278.403 132.455 L 277.283 130.22 L 276.008 128.071 L 274.582 126.018 L 273.013 124.072 L 271.309 122.243 L 269.479 120.541 L 267.532 118.973 L 265.479 117.549 L 263.329 116.274 L 261.093 115.156 L 258.783 114.201 L 256.411 113.413 L 253.989 112.796 L 251.529 112.353 L 249.044 112.088 L 246.568 112 Z"
       id="BOTTOM_outsideCutPath"
       stroke="#FF0000"
       stroke-width="0.1"
       style="stroke:#FF0000;stroke-width:0.22648333;stroke-miterlimit:4;stroke-dasharray:none"
       vector-effect="non-scaling-stroke" />
    <path
       d="M 32.392 106 32.392 79.5 M 32.392 66.25 32.392 39.75 M 32.392 26.5 32.392 0 M 35.45 106 35.45 99.375 M 35.45 86.125 35.45 59.625 M 35.45 46.375 35.45 19.875 M 35.45 6.625 35.45 0 M 38.507 106 38.507 79.5 M 38.507 66.25 38.507 39.75 M 38.507 26.5 38.507 0 M 41.565 106 41.565 99.375 M 41.565 86.125 41.565 59.625 M 41.565 46.375 41.565 19.875 M 41.565 6.625 41.565 0 M 44.622 106 44.622 79.5 M 44.622 66.25 44.622 39.75 M 44.622 26.5 44.622 0 M 47.68 106 47.68 99.375 M 47.68 86.125 47.68 59.625 M 47.68 46.375 47.68 19.875 M 47.68 6.625 47.68 0 M 50.737 106 50.737 79.5 M 50.737 66.25 50.737 39.75 M 50.737 26.5 50.737 0 M 53.795 106 53.795 99.375 M 53.795 86.125 53.795 59.625 M 53.795 46.375 53.795 19.875 M 53.795 6.625 53.795 0 M 56.852 106 56.852 79.5 M 56.852 66.25 56.852 39.75 M 56.852 26.5 56.852 0 M 59.91 106 59.91 99.375 M 59.91 86.125 59.91 59.625 M 59.91 46.375 59.91 19.875 M 59.91 6.625 59.91 0 M 62.967 106 62.967 79.5 M 62.967 66.25 62.967 39.75 M 62.967 26.5 62.967 0 M 66.025 106 66.025 99.375 M 66.025 86.125 66.025 59.625 M 66.025 46.375 66.025 19.875 M 66.025 6.625 66.025 0 M 69.082 106 69.082 79.5 M 69.082 66.25 69.082 39.75 M 69.082 26.5 69.082 0 M 72.14 106 72.14 99.375 M 72.14 86.125 72.14 59.625 M 72.14 46.375 72.14 19.875 M 72.14 6.625 72.14 0 M 75.197 106 75.197 79.5 M 75.197 66.25 75.197 39.75 M 75.197 26.5 75.197 0 M 78.255 106 78.255 99.375 M 78.255 86.125 78.255 59.625 M 78.255 46.375 78.255 19.875 M 78.255 6.625 78.255 0 M 81.312 106 81.312 79.5 M 81.312 66.25 81.312 39.75 M 81.312 26.5 81.312 0 M 84.37 106 84.37 99.375 M 84.37 86.125 84.37 59.625 M 84.37 46.375 84.37 19.875 M 84.37 6.625 84.37 0 M 163.933 106 163.933 79.5 M 163.933 66.25 163.933 39.75 M 163.933 26.5 163.933 0 M 166.99 106 166.99 99.375 M 166.99 86.125 166.99 59.625 M 166.99 46.375 166.99 19.875 M 166.99 6.625 166.99 0 M 170.048 106 170.048 79.5 M 170.048 66.25 170.048 39.75 M 170.048 26.5 170.048 0 M 173.105 106 173.105 99.375 M 173.105 86.125 173.105 59.625 M 173.105 46.375 173.105 19.875 M 173.105 6.625 173.105 0 M 176.163 106 176.163 79.5 M 176.163 66.25 176.163 39.75 M 176.163 26.5 176.163 0 M 179.22 106 179.22 99.375 M 179.22 86.125 179.22 59.625 M 179.22 46.375 179.22 19.875 M 179.22 6.625 179.22 0 M 182.278 106 182.278 79.5 M 182.278 66.25 182.278 39.75 M 182.278 26.5 182.278 0 M 185.336 106 185.336 99.375 M 185.336 86.125 185.336 59.625 M 185.336 46.375 185.336 19.875 M 185.336 6.625 185.336 0 M 188.393 106 188.393 79.5 M 188.393 66.25 188.393 39.75 M 188.393 26.5 188.393 0 M 191.451 106 191.451 99.375 M 191.451 86.125 191.451 59.625 M 191.451 46.375 191.451 19.875 M 191.451 6.625 191.451 0 M 194.508 106 194.508 79.5 M 194.508 66.25 194.508 39.75 M 194.508 26.5 194.508 0 M 197.566 106 197.566 99.375 M 197.566 86.125 197.566 59.625 M 197.566 46.375 197.566 19.875 M 197.566 6.625 197.566 0 M 200.623 106 200.623 79.5 M 200.623 66.25 200.623 39.75 M 200.623 26.5 200.623 0 M 203.681 106 203.681 99.375 M 203.681 86.125 203.681 59.625 M 203.681 46.375 203.681 19.875 M 203.681 6.625 203.681 0 M 206.738 106 206.738 79.5 M 206.738 66.25 206.738 39.75 M 206.738 26.5 206.738 0 M 209.796 106 209.796 99.375 M 209.796 86.125 209.796 59.625 M 209.796 46.375 209.796 19.875 M 209.796 6.625 209.796 0 M 212.853 106 212.853 79.5 M 212.853 66.25 212.853 39.75 M 212.853 26.5 212.853 0 M 215.911 106 215.911 99.375 M 215.911 86.125 215.911 59.625 M 215.911 46.375 215.911 19.875 M 215.911 6.625 215.911 0 M 283.695 106 283.695 79.5 M 283.695 66.25 283.695 39.75 M 283.695 26.5 283.695 0 M 286.752 106 286.752 99.375 M 286.752 86.125 286.752 59.625 M 286.752 46.375 286.752 19.875 M 286.752 6.625 286.752 0 M 289.81 106 289.81 79.5 M 289.81 66.25 289.81 39.75 M 289.81 26.5 289.81 0 M 292.867 106 292.867 99.375 M 292.867 86.125 292.867 59.625 M 292.867 46.375 292.867 19.875 M 292.867 6.625 292.867 0 M 295.925 106 295.925 79.5 M 295.925 66.25 295.925 39.75 M 295.925 26.5 295.925 0 M 298.982 106 298.982 99.375 M 298.982 86.125 298.982 59.625 M 298.982 46.375 298.982 19.875 M 298.982 6.625 298.982 0 M 302.04 106 302.04 79.5 M 302.04 66.25 302.04 39.75 M 302.04 26.5 302.04 0 M 305.097 106 305.097 99.375 M 305.097 86.125 305.097 59.625 M 305.097 46.375 305.097 19.875 M 305.097 6.625 305.097 0 M 308.155 106 308.155 79.5 M 308.155 66.25 308.155 39.75 M 308.155 26.5 308.155 0 M 311.212 106 311.212 99.375 M 311.212 86.125 311.212 59.625 M 311.212 46.375 311.212 19.875 M 311.212 6.625 311.212 0 M 314.27 106 314.27 79.5 M 314.27 66.25 314.27 39.75 M 314.27 26.5 314.27 0 M 317.328 106 317.328 99.375 M 317.328 86.125 317.328 59.625 M 317.328 46.375 317.328 19.875 M 317.328 6.625 317.328 0 M 320.385 106 320.385 79.5 M 320.385 66.25 320.385 39.75 M 320.385 26.5 320.385 0 M 323.443 106 323.443 99.375 M 323.443 86.125 323.443 59.625 M 323.443 46.375 323.443 19.875 M 323.443 6.625 323.443 0 M 326.5 106 326.5 79.5 M 326.5 66.25 326.5 39.75 M 326.5 26.5 326.5 0 M 329.558 106 329.558 99.375 M 329.558 86.125 329.558 59.625 M 329.558 46.375 329.558 19.875 M 329.558 6.625 329.558 0 M 332.615 106 332.615 79.5 M 332.615 66.25 332.615 39.75 M 332.615 26.5 332.615 0 M 335.673 106 335.673 99.375 M 335.673 86.125 335.673 59.625 M 335.673 46.375 335.673 19.875 M 335.673 6.625 335.673 0 M 415.236 106 415.236 79.5 M 415.236 66.25 415.236 39.75 M 415.236 26.5 415.236 0 M 418.293 106 418.293 99.375 M 418.293 86.125 418.293 59.625 M 418.293 46.375 418.293 19.875 M 418.293 6.625 418.293 0 M 421.351 106 421.351 79.5 M 421.351 66.25 421.351 39.75 M 421.351 26.5 421.351 0 M 424.408 106 424.408 99.375 M 424.408 86.125 424.408 59.625 M 424.408 46.375 424.408 19.875 M 424.408 6.625 424.408 0 M 427.466 106 427.466 79.5 M 427.466 66.25 427.466 39.75 M 427.466 26.5 427.466 0 M 430.523 106 430.523 99.375 M 430.523 86.125 430.523 59.625 M 430.523 46.375 430.523 19.875 M 430.523 6.625 430.523 0 M 433.581 106 433.581 79.5 M 433.581 66.25 433.581 39.75 M 433.581 26.5 433.581 0 M 436.638 106 436.638 99.375 M 436.638 86.125 436.638 59.625 M 436.638 46.375 436.638 19.875 M 436.638 6.625 436.638 0 M 439.696 106 439.696 79.5 M 439.696 66.25 439.696 39.75 M 439.696 26.5 439.696 0 M 442.753 106 442.753 99.375 M 442.753 86.125 442.753 59.625 M 442.753 46.375 442.753 19.875 M 442.753 6.625 442.753 0 M 445.811 106 445.811 79.5 M 445.811 66.25 445.811 39.75 M 445.811 26.5 445.811 0 M 448.868 106 448.868 99.375 M 448.868 86.125 448.868 59.625 M 448.868 46.375 448.868 19.875 M 448.868 6.625 448.868 0 M 451.926 106 451.926 79.5 M 451.926 66.25 451.926 39.75 M 451.926 26.5 451.926 0 M 454.983 106 454.983 99.375 M 454.983 86.125 454.983 59.625 M 454.983 46.375 454.983 19.875 M 454.983 6.625 454.983 0 M 458.041 106 458.041 79.5 M 458.041 66.25 458.041 39.75 M 458.041 26.5 458.041 0 M 461.098 106 461.098 99.375 M 461.098 86.125 461.098 59.625 M 461.098 46.375 461.098 19.875 M 461.098 6.625 461.098 0 M 464.156 106 464.156 79.5 M 464.156 66.25 464.156 39.75 M 464.156 26.5 464.156 0 M 467.213 106 467.213 99.375 M 467.213 86.125 467.213 59.625 M 467.213 46.375 467.213 19.875 M 467.213 6.625 467.213 0"
       id="SIDE_insideCutPath"
       stroke="#0000FF"
       stroke-width="0.1"
       style="stroke:#0000FF;stroke-width:0.22648333;stroke-miterlimit:4;stroke-dasharray:none"
       vector-effect="non-scaling-stroke" />
    <ellipse
       id="path4529-5-2"
       cx="251.32828"
       cy="85.188103"
       style="fill:none;stroke:#ff0000;stroke-width:0.22648333;stroke-miterlimit:4;stroke-dasharray:none;stroke-opacity:1"
       rx="5.9150343"
       ry="5.9150338" />
    <path
       d="M 0 0 L 0 106 L 10.759 106 L 10.759 103 L 21.634 103 L 21.634 106 L 32.392 106 L 87.37 106 L 98.464 106 L 98.464 103 L 109.339 103 L 109.339 106 L 120.214 106 L 120.214 103 L 131.089 103 L 131.089 106 L 141.964 106 L 141.964 103 L 152.839 103 L 152.839 106 L 163.933 106 L 218.911 106 L 234.99 106 L 234.99 103 L 245.865 103 L 245.865 106 L 256.74 106 L 256.74 103 L 267.615 103 L 267.615 106 L 278.49 106 L 283.695 106 L 338.673 106 L 349.767 106 L 349.767 103 L 360.642 103 L 360.642 106 L 371.517 106 L 371.517 103 L 382.392 103 L 382.392 106 L 393.267 106 L 393.267 103 L 404.142 103 L 404.142 106 L 415.236 106 L 470.213 106 L 480.972 106 L 480.972 103 L 491.847 103 L 491.847 106 L 502.605 106 L 502.605 0 L 491.847 0 L 491.847 3 L 480.972 3 L 480.972 0 L 470.213 0 L 415.236 0 L 404.142 0 L 404.142 3 L 393.267 3 L 393.267 0 L 382.392 0 L 382.392 3 L 371.517 3 L 371.517 0 L 360.642 0 L 360.642 3 L 349.767 3 L 349.767 0 L 338.673 0 L 283.695 0 L 267.615 0 L 267.615 3 L 256.74 3 L 256.74 0 L 245.865 0 L 245.865 3 L 234.99 3 L 234.99 0 L 224.115 0 L 218.911 0 L 163.933 0 L 152.839 0 L 152.839 3 L 141.964 3 L 141.964 0 L 131.089 0 L 131.089 3 L 120.214 3 L 120.214 0 L 109.339 0 L 109.339 3 L 98.464 3 L 98.464 0 L 87.37 0 L 32.392 0 L 21.634 0 L 21.634 3 L 10.759 3 L 10.759 0 L 0 0 Z"
       id="SIDE_outsideCutPath"
       stroke="#FF0000"
       stroke-width="0.1"
       style="stroke:#FF0000;stroke-width:0.22648333;stroke-miterlimit:4;stroke-dasharray:none"
       vector-effect="non-scaling-stroke" />
    <circle
       id="path4529"
       cx="111.7"
       cy="68.562988"
       style="stroke:#ff0000;stroke-width:0.22648333;stroke-opacity:1;stroke-miterlimit:4;stroke-dasharray:none"
       r="7.8867121" />
    <circle
       id="path4529-3"
       cx="137.69997"
       cy="68.562988"
       style="fill:none;stroke:#ff0000;stroke-width:0.22648333;stroke-opacity:1;stroke-miterlimit:4;stroke-dasharray:none"
       r="7.8867116" />
    <circle
       id="path4529-6"
       cx="238.14331"
       cy="33.562988"
       style="fill:none;stroke:#ff0000;stroke-width:0.22648333;stroke-opacity:1;stroke-miterlimit:4;stroke-dasharray:none"
       r="7.8867116" />
    <circle
       id="path4529-3-7"
       cx="264.14352"
       cy="33.562988"
       style="fill:none;stroke:#ff0000;stroke-width:0.22648333;stroke-opacity:1;stroke-miterlimit:4;stroke-dasharray:none"
       r="7.8867111" />
    <circle
       id="path4529-5"
       cx="364.4213"
       cy="68.562988"
       style="fill:none;stroke:#ff0000;stroke-width:0.22648333;stroke-opacity:1;stroke-miterlimit:4;stroke-dasharray:none"
       r="7.8867116" />
    <circle
       id="path4529-3-3"
       cx="390.42126"
       cy="68.562988"
       style="fill:none;stroke:#ff0000;stroke-width:0.22648333;stroke-opacity:1;stroke-miterlimit:4;stroke-dasharray:none"
       r="7.8867111" />
    <rect
       style="fill:none;stroke:#ff0000;stroke-width:0.22648333;stroke-miterlimit:4;stroke-dasharray:none;stroke-opacity:1"
       id="rect4572-5"
       width="10"
       height="10"
       x="246.31325"
       y="49.628304" />
    <path
       inkscape:connector-curvature="0"
       d="m 395.53355,111.64585 h -16.079 v -3 h -10.875 v 3 h -10.875 v -3 h -10.875 v 3 h -10.875 -5.205 l -2.498,0.089 -2.485,0.268 -2.46,0.444 -2.421,0.618 -2.372,0.79 -2.309,0.956 -2.235,1.12 -2.149,1.275 -2.053,1.426 -1.946,1.569 -1.829,1.704 -1.702,1.83 -1.568,1.947 -1.424,2.053 -1.275,2.151 -1.118,2.235 -0.955,2.31 -0.788,2.372 -0.617,2.422 -0.443,2.46 -0.265,2.485 -0.088,2.476 v 11.094 h -3 v 10.875 h 3 v 10.875 h -3 v 10.875 h 3 v 10.875 h -3 v 10.875 h 3 v 11.094 l 0.089,2.498 0.268,2.485 0.444,2.46 0.618,2.421 0.79,2.372 0.956,2.309 1.12,2.235 1.276,2.149 1.426,2.053 1.568,1.946 1.704,1.829 1.83,1.702 1.947,1.568 2.053,1.424 2.151,1.275 2.235,1.118 2.31,0.955 2.372,0.788 2.422,0.617 2.46,0.443 2.485,0.265 2.476,0.088 h 10.759 v 3 h 10.875 v -3 h 10.758 10.759 v 3 h 10.875 v -3 h 10.758 l 2.498,-0.089 2.485,-0.268 2.46,-0.444 2.422,-0.618 2.371,-0.79 2.309,-0.956 2.235,-1.12 2.149,-1.276 2.053,-1.426 1.946,-1.568 1.829,-1.704 1.702,-1.83 1.568,-1.947 1.425,-2.053 1.274,-2.151 1.118,-2.235 0.955,-2.31 0.788,-2.372 0.617,-2.422 0.443,-2.46 0.265,-2.485 0.088,-2.476 v -11.094 h 3 v -10.875 h -3 v -10.875 h 3 v -10.875 h -3 v -10.875 h 3 v -10.875 h -3 v -11.094 l -0.089,-2.498 -0.267,-2.485 -0.444,-2.46 -0.619,-2.421 -0.789,-2.372 -0.957,-2.309 -1.12,-2.235 -1.275,-2.149 -1.426,-2.053 -1.569,-1.946 -1.704,-1.829 -1.83,-1.702 -1.947,-1.568 -2.053,-1.424 -2.15,-1.275 -2.236,-1.118 -2.31,-0.955 -2.372,-0.788 -2.422,-0.617 -2.46,-0.443 -2.485,-0.265 z"
       id="BOTTOM_outsideCutPath-6"
       style="vector-effect:non-scaling-stroke;fill:none;stroke:#ff0000;stroke-width:0.22648333;stroke-miterlimit:4;stroke-dasharray:none" />
    <rect
       style="stroke:#ff0000;stroke-width:0.22648333;stroke-opacity:1;stroke-miterlimit:4;stroke-dasharray:none"
       id="rect4604"
       width="111.85996"
       height="111.62826"
       x="307.45969"
       y="128.93027" />
    <path
       style="fill:none;stroke:#ff0000;stroke-width:0.23151042;stroke-linecap:butt;stroke-linejoin:miter;stroke-opacity:1;stroke-miterlimit:4;stroke-dasharray:none"
       d="M 251.36496,105.98007 251.54357,0.08237156"
       id="path826"
       inkscape:connector-curvature="0" />
  </g>
</svg>
